<svg width="588" height="667" viewBox="0 0 588 667" fill="none" xmlns="http://www.w3.org/2000/svg">
<path d="M500.569 661.405C495.526 661.405 491.437 657.339 491.437 652.324C491.437 647.308 495.526 643.243 500.569 643.243C505.612 643.243 509.701 647.308 509.701 652.324C509.701 657.323 505.612 661.405 500.569 661.405Z" stroke="#04D361" stroke-width="3" stroke-miterlimit="10" stroke-linecap="round" stroke-linejoin="round"/>
<path d="M494.269 658.888L487.811 665.294" stroke="#04D361" stroke-width="3" stroke-miterlimit="10" stroke-linecap="round" stroke-linejoin="round"/>
<path d="M329.217 2L319.609 11.5541" stroke="#04D361" stroke-width="3" stroke-miterlimit="10" stroke-linecap="round" stroke-linejoin="round"/>
<path d="M329.217 11.5541L319.609 2" stroke="#04D361" stroke-width="3" stroke-miterlimit="10" stroke-linecap="round" stroke-linejoin="round"/>
<path d="M315.461 576.763L305.854 586.317" stroke="#04D361" stroke-width="3" stroke-miterlimit="10" stroke-linecap="round" stroke-linejoin="round"/>
<path d="M315.461 586.317L305.854 576.763" stroke="#04D361" stroke-width="3" stroke-miterlimit="10" stroke-linecap="round" stroke-linejoin="round"/>
<path d="M15.4307 187.274L1.8441 187.274" stroke="#04D361" stroke-width="3" stroke-miterlimit="10" stroke-linecap="round" stroke-linejoin="round"/>
<path d="M8.63896 194.046L8.63896 180.52" stroke="#04D361" stroke-width="3" stroke-miterlimit="10" stroke-linecap="round" stroke-linejoin="round"/>
<path d="M412.866 138.422C408.316 138.422 404.609 134.752 404.609 130.211C404.609 125.686 408.3 122 412.866 122C417.416 122 421.123 125.67 421.123 130.211C421.107 134.752 417.416 138.422 412.866 138.422Z" stroke="#04D361" stroke-width="3" stroke-miterlimit="10" stroke-linecap="round" stroke-linejoin="round"/>
<path d="M577.743 345.169C573.193 345.169 569.486 341.499 569.486 336.958C569.486 332.434 573.177 328.747 577.743 328.747C582.293 328.747 586 332.418 586 336.958C585.984 341.499 582.293 345.169 577.743 345.169Z" stroke="#04D361" stroke-width="3" stroke-miterlimit="10" stroke-linecap="round" stroke-linejoin="round"/>
<path d="M58.5915 471.906C54.0414 471.906 50.3345 468.236 50.3345 463.695C50.3345 459.17 54.0255 455.484 58.5915 455.484C63.1416 455.484 66.8485 459.155 66.8485 463.695C66.8326 468.236 63.1416 471.906 58.5915 471.906Z" stroke="#04D361" stroke-width="3" stroke-miterlimit="10" stroke-linecap="round" stroke-linejoin="round"/>
</svg>
