<svg width="539" height="646" viewBox="0 0 539 646" fill="none" xmlns="http://www.w3.org/2000/svg">
<path d="M118.224 3.24674C118.224 4.88912 119.562 6.22053 121.214 6.22053C122.866 6.22053 124.204 4.88912 124.204 3.24674C124.204 1.60436 122.866 0.272949 121.214 0.272949C119.562 0.272949 118.224 1.60436 118.224 3.24674Z" fill="#9871F5"/>
<path d="M118.224 24.0199C118.224 25.6623 119.562 26.9937 121.214 26.9937C122.866 26.9937 124.204 25.6623 124.204 24.0199C124.204 22.3776 122.866 21.0461 121.214 21.0461C119.562 21.0461 118.224 22.3776 118.224 24.0199Z" fill="#9871F5"/>
<path d="M118.224 44.7744C118.224 46.4168 119.562 47.7482 121.214 47.7482C122.866 47.7482 124.204 46.4168 124.204 44.7744C124.204 43.1321 122.866 41.8007 121.214 41.8007C119.562 41.8007 118.224 43.1321 118.224 44.7744Z" fill="#9871F5"/>
<path d="M118.224 65.5447C118.224 67.1871 119.562 68.5185 121.214 68.5185C122.866 68.5185 124.204 67.1871 124.204 65.5447C124.204 63.9023 122.866 62.5709 121.214 62.5709C119.562 62.5709 118.224 63.9023 118.224 65.5447Z" fill="#9871F5"/>
<path d="M118.224 86.3011C118.224 87.9434 119.562 89.2748 121.214 89.2748C122.866 89.2748 124.204 87.9434 124.204 86.3011C124.204 84.6587 122.866 83.3273 121.214 83.3273C119.562 83.3273 118.224 84.6587 118.224 86.3011Z" fill="#9871F5"/>
<path d="M118.224 107.071C118.224 108.714 119.562 110.045 121.214 110.045C122.866 110.045 124.204 108.714 124.204 107.071C124.204 105.429 122.866 104.098 121.214 104.098C119.562 104.098 118.224 105.429 118.224 107.071Z" fill="#9871F5"/>
<path d="M97.3502 3.24698C97.3502 4.88936 98.6891 6.22077 100.341 6.22077C101.992 6.22077 103.331 4.88936 103.331 3.24698C103.331 1.60461 101.992 0.273193 100.341 0.273193C98.6891 0.273193 97.3502 1.60461 97.3502 3.24698Z" fill="#9871F5"/>
<path d="M97.3502 24.0199C97.3502 25.6623 98.6891 26.9937 100.341 26.9937C101.992 26.9937 103.331 25.6623 103.331 24.0199C103.331 22.3776 101.992 21.0461 100.341 21.0461C98.6891 21.0461 97.3502 22.3776 97.3502 24.0199Z" fill="#9871F5"/>
<path d="M97.3502 44.7744C97.3502 46.4168 98.6891 47.7482 100.341 47.7482C101.992 47.7482 103.331 46.4168 103.331 44.7744C103.331 43.1321 101.992 41.8007 100.341 41.8007C98.6891 41.8007 97.3502 43.1321 97.3502 44.7744Z" fill="#9871F5"/>
<path d="M97.3502 65.5447C97.3502 67.1871 98.6891 68.5185 100.341 68.5185C101.992 68.5185 103.331 67.1871 103.331 65.5447C103.331 63.9023 101.992 62.5709 100.341 62.5709C98.6891 62.5709 97.3502 63.9023 97.3502 65.5447Z" fill="#9871F5"/>
<path d="M97.3502 86.3011C97.3502 87.9434 98.6891 89.2748 100.341 89.2748C101.992 89.2748 103.331 87.9434 103.331 86.3011C103.331 84.6587 101.992 83.3273 100.341 83.3273C98.6891 83.3273 97.3502 84.6587 97.3502 86.3011Z" fill="#9871F5"/>
<path d="M97.3502 107.071C97.3502 108.714 98.6891 110.045 100.341 110.045C101.992 110.045 103.331 108.714 103.331 107.071C103.331 105.429 101.992 104.098 100.341 104.098C98.6891 104.098 97.3502 105.429 97.3502 107.071Z" fill="#9871F5"/>
<path d="M76.4611 3.24698C76.4611 4.88936 77.8 6.22077 79.4516 6.22077C81.1032 6.22077 82.442 4.88936 82.442 3.24698C82.442 1.60461 81.1032 0.273193 79.4516 0.273193C77.8 0.273193 76.4611 1.60461 76.4611 3.24698Z" fill="#9871F5"/>
<path d="M76.4611 24.0199C76.4611 25.6623 77.8 26.9937 79.4516 26.9937C81.1032 26.9937 82.442 25.6623 82.442 24.0199C82.442 22.3776 81.1032 21.0461 79.4516 21.0461C77.8 21.0461 76.4611 22.3776 76.4611 24.0199Z" fill="#9871F5"/>
<path d="M76.4611 44.7744C76.4611 46.4168 77.8 47.7482 79.4516 47.7482C81.1032 47.7482 82.442 46.4168 82.442 44.7744C82.442 43.1321 81.1032 41.8007 79.4516 41.8007C77.8 41.8007 76.4611 43.1321 76.4611 44.7744Z" fill="#9871F5"/>
<path d="M76.4612 65.5447C76.4612 67.1871 77.8 68.5185 79.4516 68.5185C81.1032 68.5185 82.4421 67.1871 82.4421 65.5447C82.4421 63.9023 81.1032 62.5709 79.4516 62.5709C77.8 62.5709 76.4612 63.9023 76.4612 65.5447Z" fill="#9871F5"/>
<path d="M76.4611 86.3011C76.4611 87.9434 77.8 89.2748 79.4516 89.2748C81.1032 89.2748 82.442 87.9434 82.442 86.3011C82.442 84.6587 81.1032 83.3273 79.4516 83.3273C77.8 83.3273 76.4611 84.6587 76.4611 86.3011Z" fill="#9871F5"/>
<path d="M76.4611 107.071C76.4611 108.714 77.8 110.045 79.4516 110.045C81.1032 110.045 82.442 108.714 82.442 107.071C82.442 105.429 81.1032 104.098 79.4516 104.098C77.8 104.098 76.4611 105.429 76.4611 107.071Z" fill="#9871F5"/>
<path d="M55.5883 3.24698C55.5883 4.88936 56.9272 6.22077 58.5787 6.22077C60.2303 6.22077 61.5692 4.88936 61.5692 3.24698C61.5692 1.60461 60.2303 0.273193 58.5787 0.273193C56.9272 0.273193 55.5883 1.60461 55.5883 3.24698Z" fill="#9871F5"/>
<path d="M55.5883 24.0199C55.5883 25.6623 56.9272 26.9937 58.5787 26.9937C60.2303 26.9937 61.5692 25.6623 61.5692 24.0199C61.5692 22.3776 60.2303 21.0461 58.5787 21.0461C56.9272 21.0461 55.5883 22.3776 55.5883 24.0199Z" fill="#9871F5"/>
<path d="M55.5883 44.7744C55.5883 46.4168 56.9272 47.7482 58.5787 47.7482C60.2303 47.7482 61.5692 46.4168 61.5692 44.7744C61.5692 43.1321 60.2303 41.8007 58.5787 41.8007C56.9272 41.8007 55.5883 43.1321 55.5883 44.7744Z" fill="#9871F5"/>
<path d="M55.5883 65.5447C55.5883 67.1871 56.9272 68.5185 58.5787 68.5185C60.2303 68.5185 61.5692 67.1871 61.5692 65.5447C61.5692 63.9023 60.2303 62.5709 58.5787 62.5709C56.9272 62.5709 55.5883 63.9023 55.5883 65.5447Z" fill="#9871F5"/>
<path d="M55.5883 86.3011C55.5883 87.9434 56.9272 89.2748 58.5787 89.2748C60.2303 89.2748 61.5692 87.9434 61.5692 86.3011C61.5692 84.6587 60.2303 83.3273 58.5787 83.3273C56.9272 83.3273 55.5883 84.6587 55.5883 86.3011Z" fill="#9871F5"/>
<path d="M55.5883 107.071C55.5883 108.714 56.9272 110.045 58.5787 110.045C60.2303 110.045 61.5692 108.714 61.5692 107.071C61.5692 105.429 60.2303 104.098 58.5787 104.098C56.9272 104.098 55.5883 105.429 55.5883 107.071Z" fill="#9871F5"/>
<path d="M458.788 457.706C458.788 459.348 460.127 460.679 461.779 460.679C463.43 460.679 464.769 459.348 464.769 457.706C464.769 456.063 463.43 454.732 461.779 454.732C460.127 454.732 458.788 456.063 458.788 457.706Z" fill="#9871F5"/>
<path d="M458.789 478.46C458.789 480.103 460.128 481.434 461.78 481.434C463.431 481.434 464.77 480.103 464.77 478.46C464.77 476.818 463.431 475.487 461.78 475.487C460.128 475.487 458.789 476.818 458.789 478.46Z" fill="#9871F5"/>
<path d="M458.789 499.23C458.789 500.872 460.128 502.204 461.78 502.204C463.431 502.204 464.77 500.872 464.77 499.23C464.77 497.588 463.431 496.256 461.78 496.256C460.128 496.256 458.789 497.588 458.789 499.23Z" fill="#9871F5"/>
<path d="M437.9 457.703C437.9 459.346 439.239 460.677 440.891 460.677C442.542 460.677 443.881 459.346 443.881 457.703C443.881 456.061 442.542 454.73 440.891 454.73C439.239 454.73 437.9 456.061 437.9 457.703Z" fill="#9871F5"/>
<path d="M437.9 478.46C437.9 480.103 439.239 481.434 440.891 481.434C442.542 481.434 443.881 480.103 443.881 478.46C443.881 476.818 442.542 475.487 440.891 475.487C439.239 475.487 437.9 476.818 437.9 478.46Z" fill="#9871F5"/>
<path d="M437.9 499.228C437.9 500.871 439.239 502.202 440.891 502.202C442.542 502.202 443.881 500.871 443.881 499.228C443.881 497.586 442.542 496.255 440.891 496.255C439.239 496.255 437.9 497.586 437.9 499.228Z" fill="#9871F5"/>
<path d="M532.498 91.9744C532.498 93.6168 533.837 94.9482 535.488 94.9482C537.14 94.9482 538.479 93.6168 538.479 91.9744C538.479 90.332 537.14 89.0006 535.488 89.0006C533.837 89.0006 532.498 90.332 532.498 91.9744Z" fill="#9871F5"/>
<path d="M532.498 112.728C532.498 114.37 533.837 115.702 535.489 115.702C537.14 115.702 538.479 114.37 538.479 112.728C538.479 111.086 537.14 109.754 535.489 109.754C533.837 109.754 532.498 111.086 532.498 112.728Z" fill="#9871F5"/>
<path d="M532.498 133.5C532.498 135.143 533.837 136.474 535.489 136.474C537.14 136.474 538.479 135.143 538.479 133.5C538.479 131.858 537.14 130.527 535.489 130.527C533.837 130.527 532.498 131.858 532.498 133.5Z" fill="#9871F5"/>
<path d="M511.609 91.9738C511.609 93.6162 512.948 94.9476 514.599 94.9476C516.251 94.9476 517.59 93.6162 517.59 91.9738C517.59 90.3314 516.251 89 514.599 89C512.948 89 511.609 90.3314 511.609 91.9738Z" fill="#9871F5"/>
<path d="M511.609 112.73C511.609 114.372 512.948 115.704 514.599 115.704C516.251 115.704 517.59 114.372 517.59 112.73C517.59 111.088 516.251 109.756 514.599 109.756C512.948 109.756 511.609 111.088 511.609 112.73Z" fill="#9871F5"/>
<path d="M511.609 133.5C511.609 135.143 512.948 136.474 514.599 136.474C516.251 136.474 517.59 135.143 517.59 133.5C517.59 131.858 516.251 130.526 514.599 130.526C512.948 130.526 511.609 131.858 511.609 133.5Z" fill="#9871F5"/>
<path d="M125.711 642.983C125.711 644.626 127.049 645.957 128.701 645.957C130.353 645.957 131.691 644.626 131.691 642.983C131.691 641.341 130.353 640.01 128.701 640.01C127.049 640.01 125.711 641.341 125.711 642.983Z" fill="#9871F5"/>
<path d="M104.822 642.983C104.822 644.626 106.16 645.957 107.812 645.957C109.464 645.957 110.802 644.626 110.802 642.983C110.802 641.341 109.464 640.01 107.812 640.01C106.16 640.01 104.822 641.341 104.822 642.983Z" fill="#9871F5"/>
<path d="M83.9482 642.983C83.9482 644.626 85.287 645.957 86.9386 645.957C88.5902 645.957 89.9291 644.626 89.9291 642.983C89.9291 641.341 88.5902 640.01 86.9386 640.01C85.287 640.01 83.9482 641.341 83.9482 642.983Z" fill="#9871F5"/>
<path d="M63.0592 642.983C63.0592 644.626 64.3981 645.957 66.0496 645.957C67.7012 645.957 69.0401 644.626 69.0401 642.983C69.0401 641.341 67.7012 640.01 66.0496 640.01C64.3981 640.01 63.0592 641.341 63.0592 642.983Z" fill="#9871F5"/>
<path d="M42.1862 642.983C42.1862 644.626 43.5251 645.957 45.1766 645.957C46.8282 645.957 48.1671 644.626 48.1671 642.983C48.1671 641.341 46.8282 640.01 45.1767 640.01C43.5251 640.01 42.1862 641.341 42.1862 642.983Z" fill="#9871F5"/>
<path d="M21.2971 642.983C21.2971 644.626 22.636 645.957 24.2876 645.957C25.9392 645.957 27.2781 644.626 27.2781 642.983C27.2781 641.341 25.9392 640.01 24.2876 640.01C22.636 640.01 21.2971 641.341 21.2971 642.983Z" fill="#9871F5"/>
<path d="M0.423796 642.983C0.423795 644.626 1.76268 645.957 3.41426 645.957C5.06584 645.957 6.40472 644.626 6.40472 642.983C6.40472 641.341 5.06584 640.01 3.41426 640.01C1.76268 640.01 0.423796 641.341 0.423796 642.983Z" fill="#9871F5"/>
<path d="M125.711 622.212C125.711 623.854 127.049 625.186 128.701 625.186C130.353 625.186 131.691 623.854 131.691 622.212C131.691 620.57 130.353 619.238 128.701 619.238C127.049 619.238 125.711 620.57 125.711 622.212Z" fill="#9871F5"/>
<path d="M104.822 622.212C104.822 623.854 106.16 625.186 107.812 625.186C109.464 625.186 110.802 623.854 110.802 622.212C110.802 620.57 109.464 619.238 107.812 619.238C106.16 619.238 104.822 620.57 104.822 622.212Z" fill="#9871F5"/>
<path d="M83.9482 622.212C83.9482 623.854 85.287 625.186 86.9386 625.186C88.5902 625.186 89.9291 623.854 89.9291 622.212C89.9291 620.57 88.5902 619.238 86.9386 619.238C85.287 619.238 83.9482 620.57 83.9482 622.212Z" fill="#9871F5"/>
<path d="M63.0592 622.212C63.0592 623.854 64.3981 625.186 66.0496 625.186C67.7012 625.186 69.0401 623.854 69.0401 622.212C69.0401 620.57 67.7012 619.238 66.0496 619.238C64.3981 619.238 63.0592 620.57 63.0592 622.212Z" fill="#9871F5"/>
<path d="M42.1862 622.212C42.1862 623.854 43.5251 625.186 45.1766 625.186C46.8282 625.186 48.1671 623.854 48.1671 622.212C48.1671 620.57 46.8282 619.238 45.1766 619.238C43.5251 619.238 42.1862 620.57 42.1862 622.212Z" fill="#9871F5"/>
<path d="M21.2971 622.212C21.2971 623.854 22.636 625.186 24.2876 625.186C25.9391 625.186 27.278 623.854 27.278 622.212C27.278 620.57 25.9391 619.238 24.2876 619.238C22.636 619.238 21.2971 620.57 21.2971 622.212Z" fill="#9871F5"/>
<path d="M0.423796 622.212C0.423795 623.854 1.76268 625.186 3.41426 625.186C5.06584 625.186 6.40472 623.854 6.40472 622.212C6.40472 620.57 5.06584 619.238 3.41426 619.238C1.76268 619.238 0.423796 620.57 0.423796 622.212Z" fill="#9871F5"/>
<path d="M125.711 601.456C125.711 603.098 127.049 604.43 128.701 604.43C130.353 604.43 131.691 603.098 131.691 601.456C131.691 599.814 130.353 598.482 128.701 598.482C127.049 598.482 125.711 599.814 125.711 601.456Z" fill="#9871F5"/>
<path d="M104.822 601.456C104.822 603.098 106.16 604.43 107.812 604.43C109.464 604.43 110.802 603.098 110.802 601.456C110.802 599.814 109.464 598.482 107.812 598.482C106.16 598.482 104.822 599.814 104.822 601.456Z" fill="#9871F5"/>
<path d="M83.9481 601.456C83.9481 603.098 85.287 604.43 86.9386 604.43C88.5902 604.43 89.9291 603.098 89.9291 601.456C89.9291 599.814 88.5902 598.482 86.9386 598.482C85.287 598.482 83.9481 599.814 83.9481 601.456Z" fill="#9871F5"/>
<path d="M63.0592 601.456C63.0592 603.098 64.3981 604.43 66.0496 604.43C67.7012 604.43 69.0401 603.098 69.0401 601.456C69.0401 599.814 67.7012 598.482 66.0496 598.482C64.3981 598.482 63.0592 599.814 63.0592 601.456Z" fill="#9871F5"/>
<path d="M42.1862 601.456C42.1862 603.098 43.5251 604.43 45.1766 604.43C46.8282 604.43 48.1671 603.098 48.1671 601.456C48.1671 599.814 46.8282 598.482 45.1766 598.482C43.5251 598.482 42.1862 599.814 42.1862 601.456Z" fill="#9871F5"/>
<path d="M21.2971 601.456C21.2971 603.098 22.636 604.43 24.2876 604.43C25.9391 604.43 27.278 603.098 27.278 601.456C27.278 599.814 25.9391 598.482 24.2876 598.482C22.636 598.482 21.2971 599.814 21.2971 601.456Z" fill="#9871F5"/>
<path d="M0.423796 601.456C0.423795 603.098 1.76268 604.43 3.41426 604.43C5.06584 604.43 6.40472 603.098 6.40472 601.456C6.40472 599.814 5.06584 598.482 3.41426 598.482C1.76268 598.482 0.423796 599.814 0.423796 601.456Z" fill="#9871F5"/>
<path d="M125.708 580.686C125.708 582.328 127.047 583.66 128.699 583.66C130.351 583.66 131.689 582.328 131.689 580.686C131.689 579.043 130.351 577.712 128.699 577.712C127.047 577.712 125.708 579.043 125.708 580.686Z" fill="#9871F5"/>
<path d="M104.822 580.685C104.822 582.328 106.16 583.659 107.812 583.659C109.464 583.659 110.802 582.328 110.802 580.685C110.802 579.043 109.464 577.712 107.812 577.712C106.16 577.712 104.822 579.043 104.822 580.685Z" fill="#9871F5"/>
<path d="M83.9481 580.685C83.9481 582.328 85.287 583.659 86.9386 583.659C88.5902 583.659 89.9291 582.328 89.9291 580.685C89.9291 579.043 88.5902 577.712 86.9386 577.712C85.287 577.712 83.9481 579.043 83.9481 580.685Z" fill="#9871F5"/>
<path d="M63.0592 580.685C63.0592 582.328 64.398 583.659 66.0496 583.659C67.7012 583.659 69.0401 582.328 69.0401 580.685C69.0401 579.043 67.7012 577.712 66.0496 577.712C64.398 577.712 63.0592 579.043 63.0592 580.685Z" fill="#9871F5"/>
<path d="M42.1862 580.685C42.1862 582.328 43.5251 583.659 45.1766 583.659C46.8282 583.659 48.1671 582.328 48.1671 580.685C48.1671 579.043 46.8282 577.712 45.1766 577.712C43.5251 577.712 42.1862 579.043 42.1862 580.685Z" fill="#9871F5"/>
<path d="M21.2971 580.685C21.2971 582.328 22.636 583.659 24.2876 583.659C25.9391 583.659 27.278 582.328 27.278 580.685C27.278 579.043 25.9391 577.712 24.2876 577.712C22.636 577.712 21.2971 579.043 21.2971 580.685Z" fill="#9871F5"/>
<path d="M0.423796 580.685C0.423795 582.328 1.76268 583.659 3.41426 583.659C5.06584 583.659 6.40472 582.328 6.40472 580.685C6.40472 579.043 5.06584 577.712 3.41426 577.712C1.76268 577.712 0.423796 579.043 0.423796 580.685Z" fill="#9871F5"/>
</svg>
